<svg height="512pt" viewBox="-17 0 512 512.001" width="512pt" xmlns="http://www.w3.org/2000/svg"><path d="m70.804688 456.839844h336.386718v24.261718h-336.386718zm0 0" fill="#a86552"/><path d="m58.886719 468.972656c0 14.1875-11.503907 25.691406-25.691407 25.691406-14.191406 0-25.695312-11.503906-25.695312-25.691406 0-14.191406 11.503906-25.691406 25.695312-25.691406 14.1875 0 25.691407 11.5 25.691407 25.691406zm0 0" fill="#f6cb43"/><path d="m58.886719 468.972656c0 14.191406-11.507813 25.691406-25.691407 25.691406-3.578124 0-6.980468-.730468-10.082031-2.058593 9.179688-3.914063 15.609375-13.019531 15.609375-23.632813 0-10.613281-6.433594-19.722656-15.609375-23.636718 3.097657-1.328126 6.503907-2.058594 10.082031-2.058594 14.183594.003906 25.691407 11.5 25.691407 25.695312zm0 0" fill="#fab03c"/><path d="m65.363281 504.5c-6.984375 0-12.644531-5.660156-12.644531-12.644531v-45.769531c0-6.980469 5.664062-12.640626 12.644531-12.640626 6.984375 0 12.644531 5.660157 12.644531 12.640626v45.769531c0 6.984375-5.660156 12.644531-12.644531 12.644531zm0 0" fill="#be7560"/><path d="m470.496094 468.972656c0 14.1875-11.5 25.691406-25.691406 25.691406-14.1875 0-25.691407-11.503906-25.691407-25.691406 0-14.191406 11.503907-25.691406 25.691407-25.691406 14.191406 0 25.691406 11.5 25.691406 25.691406zm0 0" fill="#f6cb43"/><path d="m419.113281 468.972656c0-14.195312 11.507813-25.691406 25.6875-25.691406 3.582031 0 6.984375.726562 10.082031 2.054688-9.175781 3.917968-15.605468 13.023437-15.605468 23.636718 0 10.613282 6.429687 19.722656 15.605468 23.636719-3.097656 1.328125-6.5 2.054687-10.082031 2.054687-14.179687 0-25.6875-11.5-25.6875-25.691406zm0 0" fill="#fab03c"/><path d="m412.636719 433.445312c6.980469 0 12.640625 5.660157 12.640625 12.640626v45.769531c0 6.984375-5.660156 12.644531-12.640625 12.644531-6.984375 0-12.644531-5.660156-12.644531-12.644531v-45.769531c0-6.980469 5.660156-12.640626 12.644531-12.640626zm0 0" fill="#be7560"/><path d="m373.523438 43.027344v441.796875c0 5.433593-4.402344 9.835937-9.835938 9.835937h-31.148438c-1.199218 0-2.367187-.363281-3.355468-1.046875l-10.769532-7.4375c-2.175781-1.503906-5.085937-1.375-7.121093.3125l-8.207031 6.8125c-1.058594.878907-2.390626 1.359375-3.765626 1.359375h-185.011718c-5.429688 0-9.835938-4.402344-9.835938-9.835937v-266.441407c0-1.542968.609375-3.027343 1.6875-4.128906l12.113282-12.339844c2.480468-2.515624 2.203124-6.636718-.597657-8.800781l-10.910156-8.417969c-1.445313-1.113281-2.292969-2.84375-2.292969-4.671874v-136.996094zm0 0" fill="#fbdbb7"/><path d="m373.523438 43.027344v441.796875c0 5.4375-4.394532 9.835937-9.835938 9.835937h-20.652344c5.4375 0 9.835938-4.398437 9.835938-9.835937v-441.796875zm0 0" fill="#f4bc8e"/><path d="m70.804688 30.898438h336.386718v24.261718h-336.386718zm0 0" fill="#a86552"/><path d="m58.886719 43.027344c0 14.191406-11.503907 25.691406-25.691407 25.691406-14.191406 0-25.695312-11.5-25.695312-25.691406 0-14.1875 11.503906-25.691406 25.695312-25.691406 14.1875 0 25.691407 11.503906 25.691407 25.691406zm0 0" fill="#f6cb43"/><path d="m58.886719 43.027344c0 14.195312-11.507813 25.691406-25.691407 25.691406-3.578124 0-6.980468-.726562-10.082031-2.054688 9.179688-3.917968 15.609375-13.023437 15.609375-23.636718 0-10.613282-6.433594-19.722656-15.609375-23.636719 3.097657-1.328125 6.503907-2.054687 10.082031-2.054687 14.183594 0 25.691407 11.5 25.691407 25.691406zm0 0" fill="#fab03c"/><path d="m65.363281 78.554688c-6.984375 0-12.644531-5.660157-12.644531-12.640626v-45.769531c0-6.984375 5.664062-12.644531 12.644531-12.644531 6.984375 0 12.644531 5.660156 12.644531 12.644531v45.769531c0 6.980469-5.660156 12.640626-12.644531 12.640626zm0 0" fill="#be7560"/><path d="m470.496094 43.027344c0 14.191406-11.5 25.691406-25.691406 25.691406-14.1875 0-25.691407-11.5-25.691407-25.691406 0-14.1875 11.503907-25.691406 25.691407-25.691406 14.191406 0 25.691406 11.503906 25.691406 25.691406zm0 0" fill="#f6cb43"/><path d="m419.113281 43.027344c0-14.191406 11.507813-25.691406 25.6875-25.691406 3.582031 0 6.984375.730468 10.082031 2.058593-9.175781 3.914063-15.605468 13.019531-15.605468 23.632813 0 10.613281 6.429687 19.722656 15.605468 23.636718-3.097656 1.328126-6.5 2.058594-10.082031 2.058594-14.179687-.003906-25.6875-11.5-25.6875-25.695312zm0 0" fill="#fab03c"/><path d="m412.636719 7.5c6.980469 0 12.640625 5.660156 12.640625 12.644531v45.769531c0 6.980469-5.660156 12.640626-12.640625 12.640626-6.984375 0-12.644531-5.660157-12.644531-12.640626v-45.769531c0-6.984375 5.660156-12.644531 12.644531-12.644531zm0 0" fill="#be7560"/><path d="m311.785156 142.328125h-145.570312c-5.433594 0-9.835938-4.402344-9.835938-9.835937v-11.414063c0-5.433594 4.402344-9.835937 9.835938-9.835937h145.570312c5.433594 0 9.835938 4.402343 9.835938 9.835937v11.414063c0 5.433593-4.40625 9.835937-9.835938 9.835937zm0 0" fill="#00fbaa"/><path d="m444.804688 435.777344c-4.722657 0-9.289063.988281-13.472657 2.847656-2.972656-7.421875-10.226562-12.679688-18.695312-12.679688-11.105469 0-20.144531 9.035157-20.144531 20.140626v3.253906h-11.46875v-274.292969c0-4.144531-3.355469-7.5-7.5-7.5-4.140626 0-7.5 3.355469-7.5 7.5v309.777344c0 1.289062-1.046876 2.335937-2.335938 2.335937h-30.648438l-10.359374-7.15625c-4.921876-3.398437-11.574219-3.105468-16.175782.714844l-7.761718 6.441406h-184.433594c-1.285156 0-2.335938-1.046875-2.335938-2.335937v-167.285157c0-4.144531-3.355468-7.5-7.5-7.5-4.140625 0-7.5 3.355469-7.5 7.5v131.800782h-11.464844v-3.253906c0-11.105469-9.039062-20.140626-20.144531-20.140626-8.472656 0-15.722656 5.261719-18.695312 12.683594-4.1875-1.863281-8.753907-2.851562-13.476563-2.851562-18.300781 0-33.191406 14.890625-33.191406 33.195312 0 18.300782 14.890625 33.191406 33.191406 33.191406 4.722656 0 9.289063-.988281 13.476563-2.851562 2.972656 7.425781 10.222656 12.6875 18.695312 12.6875 11.105469 0 20.144531-9.035156 20.144531-20.144531v-3.253907h11.894532c1.730468 7.746094 8.648437 13.558594 16.90625 13.558594h185.011718c3.113282 0 6.152344-1.09375 8.554688-3.085937l7.277344-6.039063 9.769531 6.75c2.25 1.554688 4.882813 2.375 7.617187 2.375h31.148438c8.261719 0 15.179688-5.808594 16.910156-13.554687h11.894532v3.253906c0 11.105469 9.035156 20.140625 20.144531 20.140625 8.46875 0 15.722656-5.261719 18.695312-12.683594 4.1875 1.859375 8.753907 2.847656 13.472657 2.847656 18.304687 0 33.195312-14.890624 33.195312-33.191406 0-18.300781-14.890625-33.195312-33.195312-33.195312zm-429.804688 33.195312c0-10.03125 8.160156-18.191406 18.191406-18.191406 4.480469 0 8.703125 1.625 12.027344 4.570312v27.242188c-3.324219 2.945312-7.546875 4.570312-12.027344 4.570312-10.03125 0-18.191406-8.160156-18.191406-18.191406zm55.507812 22.882813c0 2.835937-2.308593 5.144531-5.144531 5.144531-2.835937 0-5.144531-2.308594-5.144531-5.144531v-45.769531c0-2.835938 2.308594-5.140626 5.144531-5.140626 2.835938 0 5.144531 2.304688 5.144531 5.140626zm15-27.515625h11.464844v9.261718h-11.464844zm295.515626 9.261718v-9.261718h11.46875v9.261718zm36.753906 18.253907c0 2.835937-2.308594 5.144531-5.144532 5.144531-2.835937 0-5.140624-2.308594-5.140624-5.144531v-45.769531c0-2.835938 2.304687-5.140626 5.140624-5.140626 2.835938 0 5.144532 2.304688 5.144532 5.140626zm27.027344-4.691407c-4.476563 0-8.699219-1.625-12.023438-4.570312v-27.246094c3.320312-2.945312 7.539062-4.570312 12.023438-4.570312 10.03125 0 18.195312 8.164062 18.195312 18.195312s-8.164062 18.191406-18.195312 18.191406zm0 0"/><path d="m33.191406 76.222656c4.722656 0 9.289063-.988281 13.476563-2.851562 2.972656 7.421875 10.222656 12.683594 18.695312 12.683594 11.105469 0 20.144531-9.035157 20.144531-20.140626v-3.253906h11.464844v117.359375c0 4.136719 1.953125 8.105469 5.210938 10.613281l9.480468 7.3125-10.855468 11.058594c-2.472656 2.519532-3.835938 5.847656-3.835938 9.378906v66.496094c0 4.140625 3.359375 7.5 7.5 7.5 4.144532 0 7.5-3.359375 7.5-7.5v-65.839844l11.648438-11.859374c2.6875-2.730469 4.078125-6.488282 3.816406-10.308594-.257812-3.820313-2.148438-7.355469-5.179688-9.695313l-10.285156-7.9375v-116.578125h254.054688v79.726563c0 4.140625 3.355468 7.5 7.5 7.5 4.140625 0 7.5-3.359375 7.5-7.5v-79.726563h11.464844v3.253906c0 11.105469 9.039062 20.140626 20.144531 20.140626 8.472656 0 15.722656-5.261719 18.695312-12.683594 4.1875 1.863281 8.753907 2.851562 13.476563 2.851562 18.300781 0 33.191406-14.890625 33.191406-33.195312 0-18.300782-14.890625-33.191406-33.191406-33.191406-4.722656 0-9.289063.988281-13.476563 2.851562-2.972656-7.425781-10.226562-12.6875-18.695312-12.6875-11.105469 0-20.144531 9.035156-20.144531 20.144531v3.253907h-52.128907c-4.144531 0-7.5 3.355468-7.5 7.5 0 4.140624 3.355469 7.5 7.5 7.5h52.128907v9.261718h-306.984376v-9.261718h222.195313c4.140625 0 7.5-3.359376 7.5-7.5 0-4.144532-3.359375-7.5-7.5-7.5h-222.195313v-3.253907c0-11.109375-9.039062-20.144531-20.144531-20.144531-8.472656 0-15.726562 5.265625-18.695312 12.6875-4.195313-1.863281-8.761719-2.851562-13.476563-2.851562-18.300781 0-33.191406 14.890624-33.191406 33.191406 0 18.300781 14.890625 33.195312 33.191406 33.195312zm429.808594-33.195312c0 10.03125-8.164062 18.191406-18.195312 18.191406-4.476563 0-8.699219-1.625-12.023438-4.570312v-27.242188c3.324219-2.945312 7.542969-4.570312 12.023438-4.570312 10.03125 0 18.195312 8.160156 18.195312 18.191406zm-55.507812-22.882813c0-2.835937 2.308593-5.144531 5.144531-5.144531 2.835937 0 5.144531 2.308594 5.144531 5.144531v45.769531c0 2.835938-2.308594 5.140626-5.144531 5.140626-2.835938 0-5.144531-2.304688-5.144531-5.140626zm-347.273438 0c0-2.835937 2.308594-5.144531 5.144531-5.144531 2.835938 0 5.144531 2.308594 5.144531 5.144531v45.769531c0 2.835938-2.308593 5.140626-5.144531 5.140626-2.835937 0-5.144531-2.304688-5.144531-5.140626zm-27.027344 4.691407c4.472656 0 8.699219 1.628906 12.027344 4.570312v27.246094c-3.324219 2.941406-7.546875 4.570312-12.027344 4.570312-10.03125 0-18.191406-8.164062-18.191406-18.195312s8.160156-18.191406 18.191406-18.191406zm0 0"/><path d="m329.121094 132.492188v-11.414063c0-9.558594-7.777344-17.335937-17.335938-17.335937h-145.570312c-9.558594 0-17.335938 7.777343-17.335938 17.335937v11.414063c0 9.5625 7.777344 17.335937 17.335938 17.335937h145.570312c9.558594 0 17.335938-7.773437 17.335938-17.335937zm-165.242188 0v-11.414063c0-1.289063 1.046875-2.335937 2.335938-2.335937h145.570312c1.289063 0 2.335938 1.046874 2.335938 2.335937v11.414063c0 1.289062-1.046875 2.335937-2.335938 2.335937h-145.570312c-1.289063 0-2.335938-1.046875-2.335938-2.335937zm0 0"/><path d="m142.976562 219.050781c0 4.140625 3.359376 7.5 7.5 7.5h63.1875c4.144532 0 7.5-3.359375 7.5-7.5s-3.355468-7.5-7.5-7.5h-63.1875c-4.140624 0-7.5 3.359375-7.5 7.5zm0 0"/><path d="m327.523438 233.191406h-7.214844c-4.144532 0-7.5 3.355469-7.5 7.5 0 4.140625 3.355468 7.5 7.5 7.5h7.214844c4.140624 0 7.5-3.359375 7.5-7.5 0-4.144531-3.359376-7.5-7.5-7.5zm0 0"/><path d="m280.964844 233.191406c-4.140625 0-7.5 3.355469-7.5 7.5 0 4.140625 3.359375 7.5 7.5 7.5h18.359375c4.144531 0 7.5-3.359375 7.5-7.5 0-4.144531-3.355469-7.5-7.5-7.5zm0 0"/><path d="m150.476562 248.191406h108.195313c4.140625 0 7.5-3.359375 7.5-7.5 0-4.144531-3.359375-7.5-7.5-7.5h-108.195313c-4.140624 0-7.5 3.355469-7.5 7.5 0 4.140625 3.359376 7.5 7.5 7.5zm0 0"/><path d="m327.523438 259.730469h-177.046876c-4.140624 0-7.5 3.359375-7.5 7.5s3.359376 7.5 7.5 7.5h177.046876c4.140624 0 7.5-3.359375 7.5-7.5s-3.359376-7.5-7.5-7.5zm0 0"/><path d="m150.476562 296.371094h7.214844c4.140625 0 7.5-3.359375 7.5-7.5s-3.359375-7.5-7.5-7.5h-7.214844c-4.140624 0-7.5 3.359375-7.5 7.5s3.359376 7.5 7.5 7.5zm0 0"/><path d="m197.03125 296.371094c4.144531 0 7.5-3.359375 7.5-7.5s-3.355469-7.5-7.5-7.5h-18.359375c-4.140625 0-7.5 3.359375-7.5 7.5s3.359375 7.5 7.5 7.5zm0 0"/><path d="m327.523438 281.371094h-108.195313c-4.144531 0-7.5 3.359375-7.5 7.5s3.355469 7.5 7.5 7.5h108.195313c4.140624 0 7.5-3.359375 7.5-7.5s-3.359376-7.5-7.5-7.5zm0 0"/><path d="m327.523438 339.386719h-177.046876c-4.140624 0-7.5 3.359375-7.5 7.5s3.359376 7.5 7.5 7.5h177.046876c4.140624 0 7.5-3.359375 7.5-7.5s-3.359376-7.5-7.5-7.5zm0 0"/><path d="m327.523438 361.027344h-7.214844c-4.144532 0-7.5 3.355468-7.5 7.5 0 4.140625 3.355468 7.5 7.5 7.5h7.214844c4.140624 0 7.5-3.359375 7.5-7.5 0-4.144532-3.359376-7.5-7.5-7.5zm0 0"/><path d="m299.324219 376.027344c4.144531 0 7.5-3.359375 7.5-7.5 0-4.144532-3.355469-7.5-7.5-7.5h-18.359375c-4.140625 0-7.5 3.355468-7.5 7.5 0 4.140625 3.359375 7.5 7.5 7.5zm0 0"/><path d="m150.476562 376.027344h108.195313c4.140625 0 7.5-3.359375 7.5-7.5 0-4.144532-3.359375-7.5-7.5-7.5h-108.195313c-4.140624 0-7.5 3.355468-7.5 7.5 0 4.140625 3.359376 7.5 7.5 7.5zm0 0"/><path d="m335.023438 395.066406c0-4.140625-3.359376-7.5-7.5-7.5h-177.046876c-4.140624 0-7.5 3.359375-7.5 7.5 0 4.144532 3.359376 7.5 7.5 7.5h177.046876c4.140624 0 7.5-3.355468 7.5-7.5zm0 0"/><path d="m258.671875 409.207031c-4.144531 0-7.5 3.359375-7.5 7.5s3.355469 7.5 7.5 7.5h40.652344c4.144531 0 7.5-3.359375 7.5-7.5s-3.355469-7.5-7.5-7.5zm0 0"/><path d="m213.664062 409.207031c-4.140624 0-7.5 3.359375-7.5 7.5s3.359376 7.5 7.5 7.5h18.359376c4.144531 0 7.5-3.359375 7.5-7.5s-3.355469-7.5-7.5-7.5zm0 0"/><path d="m150.476562 409.207031c-4.140624 0-7.5 3.359375-7.5 7.5s3.359376 7.5 7.5 7.5h40.894532c4.144531 0 7.5-3.359375 7.5-7.5s-3.355469-7.5-7.5-7.5zm0 0"/></svg>